<svg aria-hidden="true" style="position:absolute;width:0;height:0;overflow:hidden" xmlns="http://www.w3.org/2000/svg">
  <defs>
  <symbol id="icon-mail" viewBox="0 0 32 32">
      <path d="M20.638 20h-8.332l2.244 1.98 2.267.011L15.12 22h3.378l.02-.018-.099.001L20.637 20zm1.119-1L25 16.1V8.009A1.01 1.01 0 0 0 24 7H9c-.552 0-1 .444-1 1.002V16.2l3.173 2.8h10.583zM13.091 6 16.5 3l3.409 3h4.093c1.107 0 1.997.895 1.997 2v3.36l3 2.64v14.006A2 2 0 0 1 26.995 30H6.002a1.995 1.995 0 0 1-2.004-1.994V14l3-2.64V8c0-1.112.894-2 1.997-2h4.093zm5.337 0L16.5 4.3 14.572 6h3.856zM26 12.677v2.656L27.5 14 26 12.677zM7 15.333v-2.656L5.5 14 7 15.333zM13.5 23l-7 6h20l-7-6h-6zm14.185 5.725A.997.997 0 0 0 28 28V15l-8 7.017 7.685 6.708zm-22.37 0L13 22.017 5 15v13c0 .283.121.542.315.725zM10 10v1h13v-1H10zm0 3v1h13v-1H10zm0 3v1h13v-1H10z"/>
    </symbol>
    <symbol id="icon-location" viewBox="0 0 32 32">
      <path d="M16 0C10.477 0 6 4.477 6 10c0 10 10 22 10 22s10-12 10-22c0-5.523-4.477-10-10-10zm0 16a6 6 0 1 1 0-12 6 6 0 0 1 0 12z"/>
    </symbol>
    <symbol id="icon-mobile" viewBox="0 0 32 32">
      <path d="M23 0H9C7.35 0 6 1.35 6 3v26c0 1.65 1.35 3 3 3h14c1.65 0 3-1.35 3-3V3c0-1.65-1.35-3-3-3zM12 1.5h8v1h-8v-1zM16 30a2 2 0 1 1-.001-3.999A2 2 0 0 1 16 30zm8-6H8V4h16v20z"/>
    </symbol>
    <symbol id="icon-slack" viewBox="0 0 32 32">
      <path d="M6.723 20.22a3.37 3.37 0 0 1-3.359 3.364h-.001A3.371 3.371 0 0 1 0 20.22a3.37 3.37 0 0 1 3.362-3.36h3.36zm1.694 0a3.37 3.37 0 0 1 3.361-3.36 3.37 3.37 0 0 1 3.361 3.36v8.418a3.372 3.372 0 0 1-3.361 3.363h-.001a3.37 3.37 0 0 1-3.361-3.362zm3.362-13.497a3.37 3.37 0 0 1-3.361-3.359v-.001A3.372 3.372 0 0 1 11.779 0h.001a3.37 3.37 0 0 1 3.361 3.362v3.36zm0 1.694a3.37 3.37 0 0 1 3.361 3.361v.001a3.37 3.37 0 0 1-3.361 3.361H3.363A3.372 3.372 0 0 1 0 11.779v-.001a3.37 3.37 0 0 1 3.362-3.361zm13.496 3.362a3.37 3.37 0 0 1 3.362-3.361A3.372 3.372 0 0 1 32 11.779v.001a3.37 3.37 0 0 1-3.362 3.361h-3.363zm-1.691 0a3.37 3.37 0 0 1-3.364 3.361 3.37 3.37 0 0 1-3.36-3.361V3.363A3.37 3.37 0 0 1 20.22 0a3.371 3.371 0 0 1 3.364 3.362zM20.22 25.275a3.371 3.371 0 0 1 3.364 3.362A3.371 3.371 0 0 1 20.22 32a3.37 3.37 0 0 1-3.36-3.362v-3.363zm0-1.691a3.37 3.37 0 0 1-3.36-3.364 3.369 3.369 0 0 1 3.36-3.36h8.418a3.37 3.37 0 0 1 3.363 3.36 3.371 3.371 0 0 1-3.362 3.364z"/>
    </symbol>
    <symbol id="icon-github" viewBox="0 0 32 32">
      <path d="M16 .395c-8.836 0-16 7.163-16 16 0 7.069 4.585 13.067 10.942 15.182.8.148 1.094-.347 1.094-.77 0-.381-.015-1.642-.022-2.979-4.452.968-5.391-1.888-5.391-1.888-.728-1.849-1.776-2.341-1.776-2.341-1.452-.993.11-.973.11-.973 1.606.113 2.452 1.649 2.452 1.649 1.427 2.446 3.743 1.739 4.656 1.33.143-1.034.558-1.74 1.016-2.14-3.554-.404-7.29-1.777-7.29-7.907 0-1.747.625-3.174 1.649-4.295-.166-.403-.714-2.03.155-4.234 0 0 1.344-.43 4.401 1.64a15.353 15.353 0 0 1 4.005-.539c1.359.006 2.729.184 4.008.539 3.054-2.07 4.395-1.64 4.395-1.64.871 2.204.323 3.831.157 4.234 1.026 1.12 1.647 2.548 1.647 4.295 0 6.145-3.743 7.498-7.306 7.895.574.497 1.085 1.47 1.085 2.963 0 2.141-.019 3.864-.019 4.391 0 .426.288.925 1.099.768C27.421 29.457 32 23.462 32 16.395c0-8.837-7.164-16-16-16z"/>
    </symbol>
    <symbol id="icon-linkedin" viewBox="0 0 32 32">
      <path d="M12 12h5.535v2.837h.079c.77-1.381 2.655-2.837 5.464-2.837C28.92 12 30 15.637 30 20.367V30h-5.769v-8.54c0-2.037-.042-4.657-3.001-4.657-3.005 0-3.463 2.218-3.463 4.509V30H12V12zM2 12h6v18H2V12zM8 7a3 3 0 1 1-6 0 3 3 0 0 1 6 0z"/>
    </symbol>
  </defs>
</svg>